<mxfile host="Electron" agent="Mozilla/5.0 (Windows NT 10.0; Win64; x64) AppleWebKit/537.36 (KHTML, like Gecko) draw.io/24.7.17 Chrome/128.0.6613.36 Electron/32.0.1 Safari/537.36" version="24.7.17">
  <diagram name="PÃ¡gina-1" id="rqRwBOnEUQwT1gOjJafb">
    <mxGraphModel dx="555" dy="982" grid="1" gridSize="10" guides="1" tooltips="1" connect="1" arrows="1" fold="1" page="1" pageScale="1" pageWidth="827" pageHeight="1169" math="0" shadow="0">
      <root>
        <mxCell id="0" />
        <mxCell id="1" parent="0" />
        <mxCell id="Fe2GwprPglYz9F7NykiJ-1" value="Library" style="swimlane;fontStyle=1;align=center;verticalAlign=top;childLayout=stackLayout;horizontal=1;startSize=26;horizontalStack=0;resizeParent=1;resizeParentMax=0;resizeLast=0;collapsible=1;marginBottom=0;whiteSpace=wrap;html=1;" vertex="1" parent="1">
          <mxGeometry x="170" y="230" width="330" height="240" as="geometry" />
        </mxCell>
        <mxCell id="Fe2GwprPglYz9F7NykiJ-2" value="- books: list[Book]" style="text;strokeColor=none;fillColor=none;align=left;verticalAlign=top;spacingLeft=4;spacingRight=4;overflow=hidden;rotatable=0;points=[[0,0.5],[1,0.5]];portConstraint=eastwest;whiteSpace=wrap;html=1;" vertex="1" parent="Fe2GwprPglYz9F7NykiJ-1">
          <mxGeometry y="26" width="330" height="26" as="geometry" />
        </mxCell>
        <mxCell id="Fe2GwprPglYz9F7NykiJ-3" value="" style="line;strokeWidth=1;fillColor=none;align=left;verticalAlign=middle;spacingTop=-1;spacingLeft=3;spacingRight=3;rotatable=0;labelPosition=right;points=[];portConstraint=eastwest;strokeColor=inherit;" vertex="1" parent="Fe2GwprPglYz9F7NykiJ-1">
          <mxGeometry y="52" width="330" height="8" as="geometry" />
        </mxCell>
        <mxCell id="Fe2GwprPglYz9F7NykiJ-4" value="+ getUserName(user: User): string&lt;div&gt;+ getBooks(): list&lt;br&gt;&lt;/div&gt;&lt;div&gt;+ showBooks(): None&lt;br&gt;&lt;/div&gt;&lt;div&gt;+ userBooks(user: User): None&lt;br&gt;&lt;/div&gt;&lt;div&gt;+ registerBook(book: Book): None&lt;br&gt;&lt;/div&gt;&lt;div&gt;+ bookIdx(bookName: string): int&lt;br&gt;&lt;/div&gt;&lt;div&gt;+ takeBook(bookName: string, user: User): None&lt;br&gt;&lt;/div&gt;&lt;div&gt;+ decreaseBookAmount(idx: int): None&lt;br&gt;&lt;/div&gt;&lt;div&gt;+ bookDisponibility(bookName: string): bool&lt;br&gt;&lt;/div&gt;&lt;div&gt;&lt;u&gt;+ verifyUserBooks(bookName: string, user: User): bool&lt;/u&gt;&lt;/div&gt;&lt;div&gt;+ returnBook(bookName: string, user: User): None&lt;br&gt;&lt;/div&gt;&lt;div&gt;+ increaseBookAmount(idx: int): None&lt;br&gt;&lt;/div&gt;" style="text;strokeColor=none;fillColor=none;align=left;verticalAlign=top;spacingLeft=4;spacingRight=4;overflow=hidden;rotatable=0;points=[[0,0.5],[1,0.5]];portConstraint=eastwest;whiteSpace=wrap;html=1;" vertex="1" parent="Fe2GwprPglYz9F7NykiJ-1">
          <mxGeometry y="60" width="330" height="180" as="geometry" />
        </mxCell>
        <mxCell id="Fe2GwprPglYz9F7NykiJ-5" value="User" style="swimlane;fontStyle=1;align=center;verticalAlign=top;childLayout=stackLayout;horizontal=1;startSize=26;horizontalStack=0;resizeParent=1;resizeParentMax=0;resizeLast=0;collapsible=1;marginBottom=0;whiteSpace=wrap;html=1;" vertex="1" parent="1">
          <mxGeometry x="170" y="590" width="330" height="180" as="geometry" />
        </mxCell>
        <mxCell id="Fe2GwprPglYz9F7NykiJ-6" value="- userName: string&lt;div&gt;- userBooks: list[Book]&lt;/div&gt;" style="text;strokeColor=none;fillColor=none;align=left;verticalAlign=top;spacingLeft=4;spacingRight=4;overflow=hidden;rotatable=0;points=[[0,0.5],[1,0.5]];portConstraint=eastwest;whiteSpace=wrap;html=1;" vertex="1" parent="Fe2GwprPglYz9F7NykiJ-5">
          <mxGeometry y="26" width="330" height="44" as="geometry" />
        </mxCell>
        <mxCell id="Fe2GwprPglYz9F7NykiJ-7" value="" style="line;strokeWidth=1;fillColor=none;align=left;verticalAlign=middle;spacingTop=-1;spacingLeft=3;spacingRight=3;rotatable=0;labelPosition=right;points=[];portConstraint=eastwest;strokeColor=inherit;" vertex="1" parent="Fe2GwprPglYz9F7NykiJ-5">
          <mxGeometry y="70" width="330" height="8" as="geometry" />
        </mxCell>
        <mxCell id="Fe2GwprPglYz9F7NykiJ-8" value="&lt;div&gt;+ getUserName(): string&lt;/div&gt;&lt;div&gt;+ getUserName(): list[Book]&lt;br&gt;&lt;/div&gt;&lt;div&gt;+ showUserBooks(): None&lt;br&gt;&lt;/div&gt;&lt;div&gt;+ setUserName(name: string): None&lt;br&gt;&lt;/div&gt;&lt;div&gt;+ addBook(book: Book): None&lt;br&gt;&lt;/div&gt;&lt;div&gt;+ returnUserBook(bookName: string): None&lt;br&gt;&lt;/div&gt;" style="text;strokeColor=none;fillColor=none;align=left;verticalAlign=top;spacingLeft=4;spacingRight=4;overflow=hidden;rotatable=0;points=[[0,0.5],[1,0.5]];portConstraint=eastwest;whiteSpace=wrap;html=1;" vertex="1" parent="Fe2GwprPglYz9F7NykiJ-5">
          <mxGeometry y="78" width="330" height="102" as="geometry" />
        </mxCell>
        <mxCell id="Fe2GwprPglYz9F7NykiJ-9" value="Book" style="swimlane;fontStyle=1;align=center;verticalAlign=top;childLayout=stackLayout;horizontal=1;startSize=26;horizontalStack=0;resizeParent=1;resizeParentMax=0;resizeLast=0;collapsible=1;marginBottom=0;whiteSpace=wrap;html=1;" vertex="1" parent="1">
          <mxGeometry x="650" y="420" width="330" height="220" as="geometry" />
        </mxCell>
        <mxCell id="Fe2GwprPglYz9F7NykiJ-10" value="- id: int&lt;div&gt;- name: string&lt;/div&gt;&lt;div&gt;- amount: int&lt;/div&gt;" style="text;strokeColor=none;fillColor=none;align=left;verticalAlign=top;spacingLeft=4;spacingRight=4;overflow=hidden;rotatable=0;points=[[0,0.5],[1,0.5]];portConstraint=eastwest;whiteSpace=wrap;html=1;" vertex="1" parent="Fe2GwprPglYz9F7NykiJ-9">
          <mxGeometry y="26" width="330" height="54" as="geometry" />
        </mxCell>
        <mxCell id="Fe2GwprPglYz9F7NykiJ-11" value="" style="line;strokeWidth=1;fillColor=none;align=left;verticalAlign=middle;spacingTop=-1;spacingLeft=3;spacingRight=3;rotatable=0;labelPosition=right;points=[];portConstraint=eastwest;strokeColor=inherit;" vertex="1" parent="Fe2GwprPglYz9F7NykiJ-9">
          <mxGeometry y="80" width="330" height="8" as="geometry" />
        </mxCell>
        <mxCell id="Fe2GwprPglYz9F7NykiJ-12" value="&lt;div&gt;+ getName(): string&lt;/div&gt;&lt;div&gt;+ getAmount(): int&lt;br&gt;&lt;/div&gt;&lt;div&gt;+ getId(): int&lt;br&gt;&lt;/div&gt;&lt;div&gt;+ setName(name: string): None&lt;br&gt;&lt;/div&gt;&lt;div&gt;+ setAmount(amount: int): None&lt;br&gt;&lt;/div&gt;&lt;div&gt;+ setId(id: int): None&lt;br&gt;&lt;/div&gt;&lt;div&gt;+ __eq__(other: any): bool&lt;br&gt;&lt;/div&gt;&lt;div&gt;+ __str__(): string&lt;br&gt;&lt;/div&gt;" style="text;strokeColor=none;fillColor=none;align=left;verticalAlign=top;spacingLeft=4;spacingRight=4;overflow=hidden;rotatable=0;points=[[0,0.5],[1,0.5]];portConstraint=eastwest;whiteSpace=wrap;html=1;" vertex="1" parent="Fe2GwprPglYz9F7NykiJ-9">
          <mxGeometry y="88" width="330" height="132" as="geometry" />
        </mxCell>
        <mxCell id="Fe2GwprPglYz9F7NykiJ-13" value="" style="endArrow=open;html=1;rounded=0;entryX=-0.008;entryY=-0.013;entryDx=0;entryDy=0;entryPerimeter=0;endFill=0;" edge="1" parent="1" target="Fe2GwprPglYz9F7NykiJ-12">
          <mxGeometry width="50" height="50" relative="1" as="geometry">
            <mxPoint x="500" y="370" as="sourcePoint" />
            <mxPoint x="550" y="320" as="targetPoint" />
            <Array as="points">
              <mxPoint x="580" y="370" />
              <mxPoint x="580" y="506" />
            </Array>
          </mxGeometry>
        </mxCell>
        <mxCell id="Fe2GwprPglYz9F7NykiJ-14" value="" style="endArrow=open;html=1;rounded=0;entryX=-0.008;entryY=-0.013;entryDx=0;entryDy=0;entryPerimeter=0;endFill=0;exitX=1.005;exitY=0.062;exitDx=0;exitDy=0;exitPerimeter=0;" edge="1" parent="1" source="Fe2GwprPglYz9F7NykiJ-8">
          <mxGeometry width="50" height="50" relative="1" as="geometry">
            <mxPoint x="503" y="400" as="sourcePoint" />
            <mxPoint x="650" y="536" as="targetPoint" />
            <Array as="points">
              <mxPoint x="583" y="674" />
              <mxPoint x="583" y="536" />
            </Array>
          </mxGeometry>
        </mxCell>
        <mxCell id="Fe2GwprPglYz9F7NykiJ-15" value="" style="endArrow=none;html=1;rounded=0;exitX=0.5;exitY=0;exitDx=0;exitDy=0;entryX=0.496;entryY=1.008;entryDx=0;entryDy=0;entryPerimeter=0;endFill=0;startArrow=open;startFill=0;" edge="1" parent="1" source="Fe2GwprPglYz9F7NykiJ-5" target="Fe2GwprPglYz9F7NykiJ-4">
          <mxGeometry width="50" height="50" relative="1" as="geometry">
            <mxPoint x="320" y="620" as="sourcePoint" />
            <mxPoint x="370" y="570" as="targetPoint" />
          </mxGeometry>
        </mxCell>
      </root>
    </mxGraphModel>
  </diagram>
</mxfile>
